# xmcd CD database file
#
# Track frame offsets:
#	150
#	17157
#	40035
#	65565
#	88851
#	109852
#	131266
#	154281
#	189486
#	216843
#	239292
#	257136
#
# Disc length: 3930 seconds
#
# Revision: 0
# Processed by: cddbd v1.5.2PL0 Copyright (c) Steve Scherf et al.
# Submitted via: CDex 1.70beta2
#
DISCID=a50f580c
DTITLE=Chris Rea - The Road To Hell And Back - Deluxe Edition CD 1
DYEAR=2006
DGENRE=Blues
TTITLE0=Jazzee Blue - Live at Warsaw Sala Kongresawa 17th March 2006
TTITLE1=That's The Way It Goes - Live at Warsaw Sala Kongresawa 17th March 2006
TTITLE2=Where The Blues Come From - Live at Warsaw Sala Kongresawa 17th March 2006
TTITLE3=Josephine - Live at Warsaw Sala Kongresawa 17th March 2006
TTITLE4=Work Gang - Live at Oxford New Theatre 14th April 2006
TTITLE5=Head Out On The Highway - Live at Brighton Centre 10th April 2006
TTITLE6=Easy Rider - Live at Hammesmith Apollo 25th April 2006
TTITLE7='Til The Morning - Live at Dublin Olympia 28th April 2006
TTITLE8=Stony Road - Live at Oxford New Theatre 14th April 2006
TTITLE9=KKK Blues - Live at Oxford New Theatre 14th April 2006
TTITLE10=Julia - Live at Brighton Centre 10th April 2006 - UK Bonus Track
TTITLE11=Stainsby Girls - Live at Oxford New Theatre 14th April 2006
EXTD=YEAR: 2006
EXTT0=
EXTT1=
EXTT2=
EXTT3=
EXTT4=
EXTT5=
EXTT6=
EXTT7=
EXTT8=
EXTT9=
EXTT10=
EXTT11=
PLAYORDER=
